PathFileType	4	(X/Y/Z)	/Users/mathieubourgeois/Desktop/Analyse/Traitement/Sujet_01/Data/Transformed_Sujet_01_velo_100.trc
DataRate	CameraRate	NumFrames	NumMarkers	Units	OrigDataRate	OrigDataStartFrame	OrigNumFrames
120.000000	120.000000	4	35	mm	120.000000	0	1988
Frame#	Time	RFHD			LFHD			RBHD			LBHD			RSHO			LSHO			CLAV			STRN			T10			RBWT			LBWT			RFWT			LFWT			RRAD			RWRA			RWRB			RCAR			RHUM			LHUM			LRAD			LWRA			LWRB			LCAR			RKNI			RKNE			LKNI			LKNE			RANE			RANI			RTOE			RHEE			LTOE			LANI			LANE			LHEE			
		X1	Y1	Z1	X2	Y2	Z2	X3	Y3	Z3	X4	Y4	Z4	X5	Y5	Z5	X6	Y6	Z6	X7	Y7	Z7	X8	Y8	Z8	X9	Y9	Z9	X10	Y10	Z10	X11	Y11	Z11	X12	Y12	Z12	X13	Y13	Z13	X14	Y14	Z14	X15	Y15	Z15	X16	Y16	Z16	X17	Y17	Z17	X18	Y18	Z18	X19	Y19	Z19	X20	Y20	Z20	X21	Y21	Z21	X22	Y22	Z22	X23	Y23	Z23	X24	Y24	Z24	X25	Y25	Z25	X26	Y26	Z26	X27	Y27	Z27	X28	Y28	Z28	X29	Y29	Z29	X30	Y30	Z30	X31	Y31	Z31	X32	Y32	Z32	X33	Y33	Z33	X34	Y34	Z34	X35	Y35	Z35	

1	0	198.6103363037109	1430.623291015625	289.5892028808593	174.3372192382812	1432.431274414062	165.4614715576171	92.96172332763668	1535.632568359375	317.6029052734374	61.91853713989256	1542.664916992188	191.3191986083984	0.7287890911101853	1385.62646484375	360.6306457519531	-9.500461578369158	1383.5888671875	139.5961608886718	22.6613845825195	1323.983032226562	257.5494689941406	-36.35441970825199	1218.134643554688	262.2056274414062	-212.7003479003907	1382.444213867188	273.9475402832031	-423.1058959960938	1121.006103515625	338.2101745605468	-428.548583984375	1114.887329101562	218.4595794677733	-250.3552398681641	1082.114868164062	385.6005859374999	-250.5116882324219	1082.941772460938	160.6724700927734	138.9218749999999	1167.23486328125	495.7826538085937	316.9562072753906	1049.880859375	408.7241516113281	340.0268249511718	1056.710327148438	468.6854858398438	419.1862487792968	1025.338134765625	401.0124206542969	93.80429077148432	1129.607788085938	462.3341979980468	98.82517242431639	1135.020385742188	86.03154754638666	146.9722442626953	1165.916748046875	56.21729660034175	324.0259094238281	1046.271728515625	149.568374633789	341.475341796875	1054.035766601562	85.53028869628903	410.4412841796875	1036.390258789062	152.1899566650391	-1.964020133018535	798.7943115234375	332.9298706054687	-7.648216247558649	836.5414428710938	448.8243408203124	-76.8802185058594	718.2046508789062	192.2743835449218	-98.9408416748047	717.8501586914062	69.5964736938476	-70.9424667358399	492.7002563476562	443.3405151367187	-61.51263046264653	500.3106689453125	362.8212280273437	109.5203247070312	447.1903686523438	396.7448425292969	-135.9381408691407	439.5787353515625	411.7418823242188	-163.2411346435547	299.5356750488281	140.3507080078124	-285.3946533203125	440.5544128417969	162.5528106689453	-297.6361389160156	437.1748962402344	86.72267913818352	-379.7874450683594	428.7824096679688	121.3119430541991	
2	0.008333333333333333	197.8949584960937	1430.104858398438	288.6397399902343	173.6406555175781	1431.790893554688	164.4605102539062	92.3366317749023	1535.147338867188	316.6012573242186	61.72254180908201	1542.444091796875	189.9068450927734	0.04170132428403271	1385.2978515625	359.1183166503906	-10.41803359985353	1382.9423828125	138.298110961914	21.2537803649902	1323.55126953125	256.5103759765624	-37.32723617553714	1217.663818359375	261.1686096191406	-213.4872436523438	1381.645141601562	273.6793518066406	-423.2756042480469	1119.05126953125	338.8558654785155	-429.2218017578125	1113.609497070312	219.0204620361327	-249.7434692382813	1080.091674804688	385.9813232421874	-251.5669097900391	1082.700561523438	160.8175048828124	138.8177337646484	1167.442138671875	495.1092834472656	316.9426574707031	1049.887329101562	408.5001220703125	339.9472961425781	1056.763305664062	468.437255859375	419.1409912109374	1025.335083007812	400.8768920898438	93.71044158935541	1129.709716796875	461.8666076660156	98.56981658935545	1134.514526367188	85.12017059326166	146.7143402099609	1165.52978515625	55.50795745849604	323.8631286621094	1046.310546875	149.3033752441406	341.3584289550781	1053.98291015625	85.25228881835935	410.3087158203125	1036.488525390625	152.0124816894531	-9.810239791870158	783.5760498046875	331.4498291015624	-13.30380153656011	821.19482421875	449.2827453613281	-68.63799285888675	728.1111450195312	191.1285095214843	-91.06082153320314	728.6155395507812	68.27692413330072	-66.22551727294928	475.2409362792969	444.0628967285156	-55.14965438842778	483.8904113769531	363.2112121582031	114.68603515625	429.7626953125	396.9106750488281	-130.8073425292969	422.5773620605469	412.0387573242188	-167.387924194336	314.9584350585938	140.4144592285156	-286.3628845214844	458.3606262207031	162.3492431640624	-298.7886657714844	454.8326416015625	86.33708190917962	-381.3190612792969	448.5063781738281	121.2404251098632	
3	0.01666666666666667	196.9584503173828	1429.616821289062	287.6383666992186	173.0041961669922	1431.21533203125	163.4181823730468	91.7238388061523	1534.747192382812	315.5213012695311	61.12034606933592	1541.9599609375	188.8282623291015	-0.7750100493431529	1385.010986328125	357.3116760253906	-11.24195480346681	1382.179565429688	136.886260986328	19.7526817321777	1323.10888671875	255.4686126708984	-38.25629043579104	1217.201904296875	260.1467895507812	-214.2135772705078	1380.877807617188	273.2041625976562	-423.2823486328126	1116.974731445312	339.5107421874999	-429.7658386230469	1112.277099609375	219.5343933105468	-248.9572753906251	1077.878173828125	386.2991638183593	-252.5829162597657	1082.451416015625	160.883071899414	138.7006072998046	1167.61865234375	494.5155334472656	316.8768310546874	1049.804443359375	408.3770446777344	339.8049621582031	1056.738037109375	468.3212890625	419.0848083496093	1025.369384765625	400.8859558105469	94.53715515136713	1129.247314453125	461.3684082031249	98.06488037109374	1133.97412109375	84.24671173095697	146.4040985107422	1165.052978515625	54.85818099975581	323.6770629882812	1046.364990234375	149.1110534667968	341.1754455566406	1053.914916992188	85.06694793701169	410.1515502929688	1036.656860351562	151.9260864257812	-20.39192008972172	766.908935546875	334.0141601562499	-19.76471900939947	805.2098388671875	449.7968444824218	-58.64795303344729	740.3868408203125	190.8359069824218	-82.96607971191408	740.0390014648438	66.91696929931635	-63.19004821777349	457.6786193847656	444.52978515625	-51.03171920776371	466.2794799804688	363.3781127929687	118.2250823974609	411.875732421875	396.9841003417969	-127.3080368041993	405.5971069335938	412.1829528808594	-169.8335723876953	330.9819030761719	140.6096038818359	-285.9197998046875	476.2952270507812	162.3421020507812	-298.6636047363281	472.7080383300781	86.11796569824212	-381.4580688476562	467.8290100097656	121.8527755737304	
4	0.025	196.3652648925781	1429.18359375	286.567901611328	172.3628997802734	1430.745483398438	162.9017028808593	91.19778442382808	1534.466674804688	314.3278808593749	60.20157241821287	1541.243041992188	188.0146484374999	-1.253791213035627	1384.7353515625	355.7587585449218	-12.35345840454103	1382.696166992188	131.4685058593749	18.13095092773434	1322.800048828125	254.3893585205077	-39.01385116577151	1216.502197265625	258.6534729003906	-214.9220123291016	1380.209228515625	272.6338500976562	-423.0392761230469	1114.936279296875	340.2509155273436	-430.2520446777344	1110.971557617188	220.3170928955077	-247.8898925781251	1075.46875	386.5306091308593	-253.4654235839844	1082.259521484375	160.9513549804687	138.557632446289	1167.769165039062	493.9190673828124	316.7954101562499	1049.691650390625	408.610107421875	339.6250305175781	1057.85546875	468.4677734375	419.0138244628906	1025.405029296875	401.0913391113281	93.60389709472651	1129.781982421875	461.0250244140624	96.59299468994139	1133.596923828125	83.65050506591791	145.9823455810547	1164.459228515625	54.19909286499018	323.2677917480469	1045.797241210938	148.9998016357422	341.6631774902344	1053.774291992188	85.07138061523435	410.0068664550781	1037.961547851562	152.6323699951172	-26.51265525817875	750.694091796875	335.2928466796874	-26.26319503784185	787.9459228515625	449.5387268066406	-48.46382904052737	753.1478271484375	191.0596771240234	-74.72245025634767	752.237060546875	65.52639007568354	-62.03127288818365	440.0266418457031	444.2061767578125	-48.97212982177739	448.7913513183594	363.55859375	119.945816040039	393.5870056152344	397.1992797851562	-125.6492919921876	388.8071594238281	412.1084899902344	-169.9547424316407	346.657958984375	140.3729858398437	-284.0572204589844	494.5365600585938	162.6431732177734	-297.4006042480469	490.1957397460938	85.95741271972649	-380.0409851074219	487.3264770507812	122.2831649780273	
